<?xml version="1.0" encoding="UTF-8" standalone="no"?>
<!-- Created with Inkscape (http://www.inkscape.org/) -->
<svg id="svg2" xmlns:rdf="http://www.w3.org/1999/02/22-rdf-syntax-ns#" xmlns="http://www.w3.org/2000/svg" height="33.867mm" width="33.867mm" version="1.1" xmlns:cc="http://creativecommons.org/ns#" xmlns:xlink="http://www.w3.org/1999/xlink" viewBox="0 0 119.99999 119.99999" xmlns:dc="http://purl.org/dc/elements/1.1/">
 <metadata id="metadata7">
  <rdf:RDF>
   <cc:Work rdf:about="">
    <dc:format>image/svg+xml</dc:format>
    <dc:type rdf:resource="http://purl.org/dc/dcmitype/StillImage"/>
    <dc:title/>
   </cc:Work>
  </rdf:RDF>
 </metadata>
 <g id="layer1" transform="translate(-1122.6 -331.22)">
  <g id="g5149" transform="translate(208.57)">
   <path id="path5153" d="m1122.6 331.22v60 60h60 60v-60-60h-60-60zm91.006 54.459c2.2549-0.0312 4.5361 0.25943 6.5781 0.87696 2.5283 0.76462 4.776 2.1706 6.67 4.1719 1.2828 1.3554 2.9276 3.7461 2.7363 3.9766-0.1297 0.15626-8.1934 5.3709-8.4687 5.4766-0.095 0.0365-0.3706-0.27611-0.7403-0.84375-1.5567-2.3901-3.2463-3.5131-5.709-3.793-1.5187-0.17256-2.9523 0.0922-4.0781 0.75195-0.7148 0.4189-1.5909 1.4438-1.8789 2.1973-0.4888 1.2792-0.4058 3.0969 0.1953 4.2832 0.8428 1.6631 2.3974 2.6437 8.0801 5.0957 6.6806 2.8825 10.008 4.9296 12.428 7.6445 1.6771 1.8819 2.7934 4.1946 3.3321 6.9024 0.1574 0.79104 0.2048 1.5888 0.207 3.4785 0 2.1609-0.028 2.595-0.2637 3.6504-0.473 2.121-1.3924 4.146-2.5898 5.707-0.6907 0.90034-2.3731 2.4654-3.3672 3.1328-2.3901 1.6048-5.6161 2.7252-9.0039 3.127-1.1169 0.13244-3.9843 0.23061-4.9063 0.16797-1.2906-0.0877-2.945-0.29582-4.082-0.51367-2.8504-0.54614-6.3288-2.0088-8.5781-3.6074-1.3269-0.94304-3.5933-3.187-4.4727-4.4277-0.851-1.2007-1.6875-2.5961-1.6875-2.8164 0-0.11001 1.6512-1.1306 4.457-2.7539 2.4517-1.4183 4.4965-2.5781 4.543-2.5781 0.047 0 0.3877 0.44819 0.7598 0.99609 1.4388 2.1189 3.5958 4.008 5.5 4.8184 1.5838 0.67399 2.5959 0.85263 4.8164 0.85156 2.3228-0.001 3.052-0.13979 4.5605-0.86914 1.1768-0.569 2.2037-1.54 2.6621-2.5137 0.6085-1.2923 0.5972-3.0482-0.029-4.3867-0.876-1.8719-2.6674-3.016-8.9042-5.6836-4.565-1.9525-6.6045-3.0345-8.7735-4.6582-3.4859-2.6095-5.4948-5.9116-6.1074-10.037-0.2238-1.507-0.2266-4.1559-0.01-5.5156 0.8548-5.2702 4.431-9.4135 9.7071-11.25 1.9323-0.67261 4.1592-1.0274 6.414-1.0586zm-36.996 0.69336h5.5332 5.5332v20.646c0 19.547-0.012 20.71-0.2109 21.836-0.9971 5.6463-3.9152 9.5153-8.6445 11.461-2.6263 1.0805-6.5894 1.6078-9.8828 1.3164-6.4076-0.56699-11.373-3.7487-14.291-9.1582-0.2602-0.4824-0.4475-0.94516-0.416-1.0274 0.063-0.16306 8.5061-5.3084 8.8653-5.4023 0.1616-0.0423 0.276 0.0393 0.4238 0.30859 0.1109 0.20209 0.5478 0.8974 0.9707 1.5449 1.284 1.9661 2.5654 3.0462 4.1836 3.5215 0.7346 0.21578 2.8822 0.2467 3.7949 0.0547 2.0086-0.42246 3.257-1.7633 3.8125-4.0938 0.1906-0.79941 0.2096-2.1723 0.2676-20.932l0.061-20.076z" transform="translate(-208.57)" fill="#eed94e"/>
  </g>
 </g>
</svg>
